<?xml version="1.0" standalone="yes"?>
<svg xmlns="http://www.w3.org/2000/svg" width="512" height="512">
<path style="fill:#ffffff; stroke:none;" d="M0 0L0 480L1 480C12.5607 437.647 31.8605 396.249 46.9468 355C74.6477 279.261 102.164 203.388 130.808 128C141.535 99.7683 151.465 71.2317 162.192 43C165.608 34.0092 168.1 18.0649 178.004 14.0092C193.402 7.70377 201.501 31.812 208.665 40.9992C223.911 60.55 247.12 72.8711 272 73.9606C345.824 77.1936 436.373 41.959 492.245 109C499.53 117.74 506.481 127.513 511 138L512 138L512 0L0 0z"/>
<path style="fill:#010101; stroke:none;" d="M90 318C108.819 334.44 129.132 350.463 154 356.346C193.766 365.753 236 356.714 276 353.91C295.43 352.549 316.158 351.377 335 357.519C363.573 366.832 374.329 386.981 391.789 408.895C396.085 414.288 403.868 416.441 409.996 412.91C417.783 408.425 419.509 397.797 422.424 390C430.138 369.373 438.06 348.783 445.343 328C460.609 284.437 477.135 241.192 493.424 198C497.936 186.036 502.247 173.993 506.681 162C509.307 154.898 512.976 147.796 511.787 140C509.012 121.801 487.785 101.027 474 90.5031C431.327 57.9251 374.512 67.3784 325 72.1698C298.341 74.7496 269.505 77.6968 244 67.3958C229.178 61.4097 216.607 50.83 207.156 38C202.334 31.4534 198.949 23.1746 193.471 17.2137C188.861 12.1968 179.601 11.3659 174.188 15.6528C168.503 20.1553 166.868 29.518 164.424 36C158.28 52.2912 152.357 68.6694 146.319 85C124.385 144.324 102.73 203.759 80.5756 263C59.1823 320.206 37.0793 377.321 17 435C12.448 448.076 7.44394 461.038 2.57639 474C0.277749 480.121 -2.0345 488.19 2.43364 493.956C7.44613 500.424 18.0268 500.795 23.6096 494.786C30.1026 487.798 32.4264 474.804 35.6813 466C48.3704 431.68 61.386 397.459 73.6921 363C78.989 348.168 86.3681 333.326 90 318z"/>
<path style="fill:#ffffff; stroke:none;" d="M186 58C167.123 115.917 143.916 172.937 122.576 230C117.223 244.312 111.71 258.58 106.657 273C104.83 278.212 100.817 284.554 103.667 290C109.304 300.77 122.157 309.105 132 315.667C183.359 349.903 250.969 322.542 308 325.039C333.262 326.146 357.599 333.297 378 348.478C386.135 354.532 392.07 362.935 400 369C414.748 341.018 422.992 307.662 434.05 278C445.719 246.701 456.935 215.222 468.808 184C472.759 173.611 483.798 155.108 482.397 144C481.603 137.706 474.707 130.595 470.711 126C455.801 108.857 435.687 98.193 413 96.0749C353.922 90.559 291.454 115.261 234 93.5749C213.547 85.8548 202.596 70.6924 186 58z"/>
<path style="fill:#010101; stroke:none;" d="M283 166L300 121C286.821 121 273.12 122.079 260 120.83C255.826 120.433 247.193 117.587 243.51 120.042C236.78 124.529 233.4 144.513 230.576 152C229.308 155.363 228.104 162.108 223.892 162.882C207.883 165.822 191.307 146.119 178 141L160 192C169.281 198.667 178.336 205.076 189 209.396C192.986 211.01 202.662 212.059 205.187 215.564C207.267 218.453 203.879 224.174 202.808 227C199.407 235.973 196.224 245.03 192.808 254C191.667 256.996 190.784 261.896 186.892 262.218C170.957 263.539 154.601 247.18 142 240C137.478 249.67 134.341 260.018 130.576 270C128.974 274.248 125.446 280.359 125.697 284.961C125.917 289 131.056 291.754 134 293.795C142.615 299.768 151.953 304.404 162 307.41C164.895 308.277 169.565 310.49 172.581 309.306C175.82 308.035 176.713 301.888 177.808 299C181.033 290.493 183.917 272.723 190.699 266.618C193.922 263.717 202.092 266.253 206 266.715C218.389 268.177 231.527 267 244 267L228 312L288 307L304 261L359 263C352.976 276.525 344.29 294.225 343 309C361.971 312.916 374.303 323.685 391 332C395.771 321.288 399.318 309.98 403.424 299C404.715 295.548 408.133 289.933 407.187 286.174C406.202 282.264 400.121 279.129 397 277.079C385.757 269.691 373.824 265.612 361 262L373.319 228L379.419 215.201L393 217.864L426 237L445 186C430.424 175.53 415.227 165.457 397 163L414 117L374 115L358.418 115.603L352.657 127L340.298 158.683L325 162.17L283 166z"/>
<path style="fill:#ffffff; stroke:none;" d="M511 149C489.701 214.346 463.501 278.62 439.424 343C433.453 358.967 427.426 374.945 421.692 391C418.991 398.564 417.082 407.554 409.996 412.297C403.645 416.549 396.138 413.669 391.789 407.957C375.099 386.037 363.934 366.623 336 357.519C313.248 350.103 287.356 352.57 264 354.83C230.204 358.101 195.844 362.952 162 357.725C132.104 353.108 114.24 333.162 90 318C73.2833 367.414 53.7728 416.068 35.6813 465C30.7749 478.271 18.7277 515.939 1 491L0 491L0 512L512 512L512 255L512 181L511 149M324 210C335.538 210 347.513 209.077 359 210.17C363.647 210.612 372.253 213.353 376.582 211.382C379.647 209.986 380.627 204.852 381.681 202L391.319 176C392.344 173.227 395.781 167.483 393.879 164.603C391.248 160.62 377.372 161.801 373 161.285C365.527 160.404 348.048 158.404 341.649 163.027C338.307 165.441 337.019 172.286 335.692 176C331.782 186.949 325.724 198.489 324 210M209 214L264 216L281 167L242 167.011L227.499 167.028L221.424 180L209 214M247 265L289 261.576L303.298 259.062L309.343 245L321 212L279 215.424L264.702 217.938L259.05 231L247 265z"/>
</svg>
