<?xml version="1.0" standalone="yes"?>
<svg xmlns="http://www.w3.org/2000/svg" width="512" height="512">
<path style="fill:#ffffff; stroke:none;" d="M0 0L0 512L395 512L395 511C383.987 507.25 368.484 493.367 357 493.708C352.227 493.849 347.197 499.713 343 501.869C333.367 506.817 322.347 508.119 312 504.961C288.99 497.937 266.51 483.002 245 472.247L113 406.247C79.1621 389.328 23.0635 374.974 29 328C9.42284 316.652 13.964 292.065 11.7145 273C7.2495 235.158 8.1223 193.228 16.6512 156C19.3395 144.266 22.8584 133.138 27.3966 122C29.3658 117.167 34.0452 111.151 34.4622 106C35.6953 90.7673 1.84336 76.2457 10.179 60.0154C12.3756 55.7385 17.0342 53.8178 21 51.5756C30.2372 46.353 46.94 33.214 57.9992 34.7068C64.9882 35.6502 69.3218 43.8655 65.2577 49.9066C61.948 54.8264 55.097 57.2046 50 59.7531C45.0368 62.2346 40.1227 64.8672 35 67C39.6383 79.0582 58.0942 90.8588 58.4576 104C58.6844 112.206 49.6712 122.43 46.6042 130C38.1585 150.845 35.2616 168.149 42.0255 190C54.7117 230.984 82.5667 265.596 110.831 297C159.81 351.42 219.379 400.436 285 433.247L365 473.247C376.016 478.755 389.773 488.985 402 490.786C409.851 491.943 417.615 487.145 424 483.186C440.699 472.831 461.001 456.467 466.647 437.001C469.426 427.42 454.797 425.519 448 422.8C424.557 413.423 401.335 403.641 378 394.011C310.343 366.09 239.804 328.049 200.066 264C177.212 227.166 178.644 160.715 230 148.503C256.18 142.278 282.336 155.04 307 162.141C339.464 171.489 371.821 181.711 404 192C400.042 169.014 381.167 146.799 366.166 130C323.976 82.7513 263.292 51.3756 203 34C178.353 26.897 159.28 22.739 134 28.8704C126.774 30.6229 117.45 33.2926 113.179 24.9846C108.676 16.2259 117.945 11.0179 125 9.42517C143.565 5.2337 162.889 1.0126 182 1L164 0L128 0L0 0z"/>
<path style="fill:#010101; stroke:none;" d="M404 192C374.684 179.384 341.504 172.503 311 163.025C285.208 155.012 256.454 141.975 229 148.503C177.94 160.644 177.635 227.401 199.453 264C237.463 327.762 309.38 366.462 376 393.603C399.706 403.261 423.227 413.29 447 422.8C452.796 425.119 468.442 427.726 466.593 436.004C464.104 447.149 455.846 455.24 448 462.996C437.8 473.078 420.417 490.278 405 490.853C397.366 491.137 388.621 484.557 382 481.247L329 454.753C304.302 442.404 278.65 431.077 255 416.796C217.778 394.32 184.177 366.233 152 337.17C114.258 303.08 78.6268 263.986 54.3086 219C42.4159 197 33.2468 170.553 41.0285 146C43.8488 137.102 47.4259 128.254 51.7809 120C54.3192 115.189 58.8712 109.704 58.7099 104C58.3513 91.325 41.0798 77.6709 35 67C40.2832 65.478 45.0946 62.6996 50 60.2469C54.9463 57.7738 61.9504 55.4982 65.2577 50.8148C69.7618 44.4367 65.6726 35.2438 57.9992 34.4197C46.5362 33.1887 30.547 45.574 21 51C17.2036 53.1577 12.3346 54.9789 10.179 59.0432C4.11353 70.4798 21.7476 86.6736 27.8843 95C30.1062 98.0148 34.3489 101.94 34.0478 106C33.6463 111.416 28.3243 118.88 26.1497 124C21.7765 134.297 18.8314 145.086 16.4244 156C8.12683 193.622 7.20802 235.807 11.7145 274C13.7184 290.984 8.89713 320.19 29 328C23.0026 360.305 47.0375 373.766 72 386.247L140 420.247L258 479.247C276.332 488.413 296.69 502.729 317 506.384C325.905 507.987 335.989 505.984 344 501.869C348.043 499.792 353.294 493.805 358 494.283C371.667 495.673 383.078 509.783 397 511.79C428.782 516.372 467.915 481.88 482.096 456C487.658 445.85 490.087 433.151 492.873 422C500.854 390.07 503 356.776 503 324C503 214.7 475.887 101.394 375 42.0108C355.914 30.7764 335.246 21.1216 314 14.7199C264.237 -0.27417 210.495 -4.28906 159 2.8696C145.974 4.68042 131.41 6.12692 119.039 10.7647C113.288 12.9208 110.441 19.1434 112.742 24.9846C116.299 34.0127 127.956 30.5788 135 28.8704C162.454 22.2117 185.508 28.2567 212 37.0008C269.32 55.9196 325.513 85.4734 366.166 131C381.774 148.48 397.704 168.982 404 192z"/>
<path style="fill:#ffffff; stroke:none;" d="M235 0L235 1C323.64 1 418.122 52.8701 462.127 130C492.198 182.705 503 250.054 503 310C503 346.849 502.108 384.026 493.127 420C490.262 431.472 487.819 444.556 482.096 455C475.276 467.446 463.627 477.997 453 487.13C441.711 496.833 427.197 508.722 412 511L412 512L512 512L512 0L235 0M233.667 21.3333L234.333 21.6667L233.667 21.3333M236 22L236 23C293.629 41.7833 347.883 77.6588 387.83 123C400.6 137.494 411.33 154.341 419.138 172C422.192 178.907 424.028 194.33 429.513 199.157C437.726 206.384 459.344 209.557 470 212C455.33 103.147 342.162 22 236 22z"/>
<path style="fill:#010101; stroke:none;" d="M79.0147 23.6566C66.6524 27.4815 72.185 46.9484 84.9992 43.4236C98.4125 39.7341 92.049 19.6238 79.0147 23.6566M99.0039 51.6674C92.6771 53.5091 90.8557 60.174 92.652 66C95.391 74.8835 109.105 94.8651 119.96 91.3464C125.491 89.5535 127.974 83.3622 126.347 78C123.7 69.2744 109.87 48.5042 99.0039 51.6674M62.0154 65.7423C56.6911 67.8329 55.0784 73.8736 56.652 79C59.5555 88.4586 73.1949 108.935 84.9815 104.258C90.1136 102.221 91.9306 95.9726 90.2971 91C87.2878 81.8396 73.4967 61.2341 62.0154 65.7423z"/>
<path style="fill:#ffffff; stroke:none;" d="M274 313L281.272 266L294 180C276.559 174.423 257.646 166.17 239 168.174C214.428 170.814 203.906 198.356 206.718 220C211.428 256.241 243.647 294.018 274 313M314 186L299.421 287L295.271 315L294.607 326.671L306 335.189L337 352.247L428 392.4L474 410C482.418 366.59 485.496 320.02 480.285 276C479.12 266.157 480.998 244.212 474.258 236.51C471.516 233.375 465.774 232.861 462 231.656C451.05 228.161 440.031 224.806 429 221.576C390.538 210.313 352.11 198.4 314 186M31 221C31 242.662 31.1767 264.492 33.7145 286C34.4813 292.499 32.8476 300.945 36.1782 306.895C40.7391 315.043 58.8561 320.175 67 324.247C94.7808 338.137 122.333 354.065 151 366L130 345.999L82.2716 296L47.4252 249L31 221M49 339C52.3845 361.58 90.0073 371.757 108 380.753L269 461.247C287.96 470.727 313.458 491.029 335 483L335 481C311.109 471.053 288.152 457.823 265 446.247L130 378.753C104.253 365.88 76.6324 346.96 49 339z"/>
<path style="fill:#010101; stroke:none;" d="M342 426.772C328.43 427.281 329.448 447.835 343 447.231C356.127 446.646 355.122 426.281 342 426.772M368 439.745C358.515 440 354.921 451.251 361.228 457.787C368.553 465.378 382.625 469.571 392 474.247C395.969 476.226 400.397 478.956 405 478.718C414.126 478.247 418.377 466.721 411.772 460.39C404.373 453.299 391.132 449.318 382 444.753C377.667 442.587 373.021 439.61 368 439.745z"/>
</svg>
