<?xml version="1.0" standalone="no"?>
<!DOCTYPE svg PUBLIC "-//W3C//DTD SVG 20010904//EN"
 "http://www.w3.org/TR/2001/REC-SVG-20010904/DTD/svg10.dtd">
<svg version="1.0" xmlns="http://www.w3.org/2000/svg"
 width="512.000000pt" height="512.000000pt" viewBox="0 0 512.000000 512.000000"
 preserveAspectRatio="xMidYMid meet">
<metadata>
Created by potrace 1.16, written by Peter Selinger 2001-2019
</metadata>
<g transform="translate(0.000000,512.000000) scale(0.100000,-0.100000)"
fill="#000000" stroke="none">
<path d="M1265 4979 c-107 -13 -215 -98 -250 -197 -11 -29 -19 -91 -22 -164
l-5 -118 -347 0 c-315 0 -350 -2 -387 -19 -55 -25 -101 -83 -114 -145 -8 -36
-10 -640 -8 -2051 l3 -2000 28 -47 c18 -31 44 -57 75 -75 l47 -28 2275 0
c2099 0 2277 1 2305 17 39 21 82 64 103 103 16 28 17 190 20 2030 2 1411 0
2015 -8 2051 -13 62 -59 120 -114 145 -37 17 -72 19 -387 19 l-347 0 -5 118
c-6 141 -22 194 -82 260 -119 132 -327 140 -462 18 -23 -21 -52 -62 -68 -98
-25 -55 -29 -78 -33 -180 l-4 -118 -918 0 -918 0 -4 118 c-4 102 -8 125 -33
180 -59 131 -189 200 -340 181z m142 -170 c17 -11 42 -37 55 -57 22 -36 23
-46 26 -302 2 -169 0 -278 -7 -301 -46 -156 -255 -172 -322 -25 -17 37 -19 69
-19 305 0 248 1 267 21 308 46 94 157 127 246 72z m2494 -4 c21 -13 46 -43 58
-67 20 -42 21 -59 21 -309 0 -236 -2 -268 -19 -305 -40 -88 -145 -128 -227
-86 -97 49 -104 76 -104 384 0 145 5 269 11 291 12 46 67 103 112 116 45 14
106 4 148 -24z m-2909 -572 c5 -137 27 -200 94 -267 63 -63 134 -91 229 -91
94 0 158 24 218 83 79 76 107 157 107 307 l0 85 919 0 918 0 5 -118 c6 -138
23 -186 93 -261 64 -69 128 -95 230 -96 95 0 166 28 229 91 67 67 89 130 94
267 l4 117 334 0 c321 0 335 -1 354 -20 19 -19 20 -33 20 -430 l0 -410 -2280
0 -2280 0 0 410 c0 397 1 411 20 430 19 19 33 20 354 20 l334 0 4 -117z m3848
-2398 l0 -1506 -25 -24 -24 -25 -2231 0 -2231 0 -24 25 -25 24 0 1506 0 1505
2280 0 2280 0 0 -1505z"/>
<path d="M1809 2897 c-61 -40 -69 -71 -69 -257 0 -186 8 -217 69 -257 33 -22
42 -23 243 -23 319 0 318 -1 318 280 0 166 -2 188 -20 217 -35 59 -56 63 -293
63 -206 0 -215 -1 -248 -23z m421 -257 l0 -130 -170 0 -170 0 0 130 0 130 170
0 170 0 0 -130z"/>
<path d="M2813 2900 c-57 -35 -63 -58 -63 -262 0 -279 -1 -278 318 -278 201 0
210 1 243 23 61 40 69 71 69 257 0 186 -8 217 -69 257 -33 22 -42 23 -250 23
-197 0 -219 -2 -248 -20z m417 -260 l0 -130 -170 0 -170 0 0 130 0 130 170 0
170 0 0 -130z"/>
<path d="M3821 2902 c-63 -34 -71 -64 -71 -260 0 -190 7 -219 58 -257 25 -19
43 -20 259 -20 l233 0 37 38 38 37 3 188 c2 167 1 191 -16 221 -35 65 -60 71
-297 71 -185 0 -214 -2 -244 -18z m409 -262 l0 -130 -165 0 -165 0 0 130 0
130 165 0 165 0 0 -130z"/>
<path d="M811 2072 c-65 -35 -72 -63 -69 -274 l3 -188 38 -37 37 -38 223 -3
c201 -2 225 -1 256 16 63 34 71 64 71 262 0 277 -3 280 -315 280 -185 0 -214
-2 -244 -18z m409 -262 l0 -130 -165 0 -165 0 0 130 0 130 165 0 165 0 0 -130z"/>
<path d="M1809 2067 c-61 -40 -69 -71 -69 -257 0 -186 8 -217 69 -257 33 -22
42 -23 243 -23 319 0 318 -1 318 280 0 166 -2 188 -20 217 -35 59 -56 63 -293
63 -206 0 -215 -1 -248 -23z m421 -257 l0 -130 -170 0 -170 0 0 130 0 130 170
0 170 0 0 -130z"/>
<path d="M2813 2070 c-57 -35 -63 -58 -63 -262 0 -279 -1 -278 318 -278 201 0
210 1 243 23 61 40 69 71 69 257 0 186 -8 217 -69 257 -33 22 -42 23 -250 23
-197 0 -219 -2 -248 -20z m417 -260 l0 -130 -170 0 -170 0 0 130 0 130 170 0
170 0 0 -130z"/>
<path d="M3821 2072 c-63 -34 -71 -64 -71 -262 0 -198 8 -228 71 -262 31 -17
55 -18 256 -16 l223 3 37 38 38 37 3 188 c2 167 1 191 -16 221 -35 65 -60 71
-297 71 -185 0 -214 -2 -244 -18z m409 -262 l0 -130 -165 0 -165 0 0 130 0
130 165 0 165 0 0 -130z"/>
<path d="M811 1242 c-63 -34 -71 -64 -71 -262 0 -277 3 -280 315 -280 312 0
315 3 315 280 0 277 -3 280 -315 280 -185 0 -214 -2 -244 -18z m409 -262 l0
-130 -165 0 -165 0 0 130 0 130 165 0 165 0 0 -130z"/>
<path d="M1809 1237 c-61 -40 -69 -71 -69 -257 0 -186 8 -217 69 -257 33 -22
42 -23 250 -23 313 0 311 -2 311 282 0 164 -2 186 -20 215 -35 59 -56 63 -293
63 -206 0 -215 -1 -248 -23z m421 -257 l0 -130 -170 0 -170 0 0 130 0 130 170
0 170 0 0 -130z"/>
<path d="M2813 1240 c-57 -34 -63 -59 -63 -260 0 -201 6 -226 63 -260 29 -18
51 -20 248 -20 208 0 217 1 250 23 61 40 69 71 69 257 0 186 -8 217 -69 257
-33 22 -42 23 -250 23 -197 0 -219 -2 -248 -20z m417 -260 l0 -130 -170 0
-170 0 0 130 0 130 170 0 170 0 0 -130z"/>
</g>
</svg>
